<svg width="664" height="255" viewBox="0 0 664 255" fill="none" xmlns="http://www.w3.org/2000/svg">
<path d="M1 254.15L18.177 232.447C18.9458 231.475 20.4037 231.429 21.2322 232.35L31.1309 243.354C31.8304 244.132 33.0109 244.239 33.8392 243.601L72.1017 214.094C72.9533 213.437 74.1717 213.571 74.8599 214.398L101.208 246.037C102.274 247.316 104.344 246.809 104.699 245.183L120.947 170.691C121.03 170.306 121.226 169.955 121.508 169.681L137.821 153.861C138.194 153.499 138.693 153.297 139.213 153.297H148.683C148.893 153.297 149.103 153.263 149.303 153.198L168.521 146.934C168.648 146.892 168.772 146.838 168.888 146.772L221.419 116.939C221.686 116.787 221.915 116.575 222.088 116.32L244.451 83.249C244.512 83.1585 244.581 83.0731 244.656 82.9938L256.947 70.0213C257.941 68.9717 259.687 69.2917 260.244 70.6259L274.726 105.289C275.255 106.555 276.873 106.925 277.899 106.014L320.082 68.5639C320.62 68.0862 321.373 67.9344 322.054 68.1661L409.973 98.0829C410.617 98.3022 411.329 98.1786 411.862 97.7549L433.162 80.8169C433.688 80.3989 434.388 80.2727 435.027 80.4808L453.14 86.3848C453.516 86.5073 453.847 86.7386 454.091 87.0493L459.949 94.4911C460.601 95.3193 461.784 95.4994 462.653 94.9027L529.385 49.0763C530.251 48.4819 531.429 48.6581 532.083 49.4796L557.557 81.4918C558.262 82.3777 559.561 82.5023 560.422 81.7664L590.058 56.4234L663 0.915283" stroke="#474747" stroke-linejoin="round"/>
</svg>
