<svg width="663" height="282" viewBox="0 0 663 282" fill="none" xmlns="http://www.w3.org/2000/svg">
<path d="M0.981934 278.822L13.1294 260.006C13.685 259.145 14.8009 258.844 15.7144 259.307L33.0741 268.112C33.9591 268.561 35.0393 268.293 35.612 267.483L68.7343 220.625C69.6174 219.375 71.5189 219.54 72.1745 220.922L100.169 279.942C100.875 281.43 102.976 281.475 103.745 280.019L124.618 240.491C124.77 240.203 124.849 239.883 124.849 239.557V184.845C124.849 183.74 125.745 182.845 126.849 182.845H143.176C143.997 182.845 144.735 183.347 145.036 184.111L147.906 191.388C148.311 192.415 149.471 192.919 150.498 192.516L166.164 186.359C166.505 186.225 166.803 186 167.025 185.709L227.261 106.552C227.818 105.821 228.802 105.563 229.646 105.928L244.236 112.234C244.486 112.343 244.756 112.399 245.029 112.399H259.603C260.453 112.399 261.21 112.935 261.491 113.737L275.914 154.887C276.347 156.121 277.828 156.615 278.915 155.887L333.905 119.06C334.393 118.733 335 118.637 335.565 118.798L407.872 139.358C408.811 139.625 409.806 139.175 410.225 138.294L433.258 89.8993C433.589 89.2026 434.292 88.7588 435.064 88.7588H458.848C459.742 88.7588 460.527 89.3515 460.772 90.2108L471.907 129.294C472.018 129.683 472.244 130.03 472.556 130.288L490.313 144.961C491.027 145.551 492.052 145.574 492.791 145.017L512.546 130.127C512.752 129.972 512.926 129.778 513.059 129.557L535.605 91.8721C536.414 90.5206 538.395 90.5906 539.106 91.9959L554.018 121.464C554.419 122.256 555.294 122.689 556.167 122.527L576.785 118.708C577.344 118.604 577.832 118.267 578.128 117.782L588.17 101.31C588.274 101.138 588.404 100.984 588.554 100.851L628.826 65.2916C629.013 65.1265 629.167 64.928 629.281 64.7061L661.999 1" stroke="#00A4B8" stroke-linejoin="round"/>
</svg>
